<?xml version="1.0" standalone="no"?>
<!DOCTYPE svg PUBLIC "-//W3C//DTD SVG 20010904//EN"
 "http://www.w3.org/TR/2001/REC-SVG-20010904/DTD/svg10.dtd">
<svg version="1.0" xmlns="http://www.w3.org/2000/svg"
 width="1500.000000pt" height="1125.000000pt" viewBox="0 0 1500.000000 1125.000000"
 preserveAspectRatio="xMidYMid meet">

<g transform="translate(0.000000,1125.000000) scale(0.100000,-0.100000)"
fill="#000000" stroke="none">
<path d="M8073 10609 c-337 -49 -769 -258 -1173 -568 -269 -207 -651 -570
-876 -835 -609 -716 -995 -1466 -1021 -1986 -8 -170 33 -310 142 -485 286
-455 869 -838 1530 -1004 260 -65 447 -90 746 -98 1016 -28 1771 304 2201 967
112 172 210 396 268 613 66 248 90 421 97 712 6 261 -4 368 -63 655 -146 718
-450 1343 -822 1691 -194 181 -409 292 -646 334 -95 16 -281 18 -383 4z m429
-223 c442 -114 818 -560 1063 -1262 l18 -51 -278 -427 c-152 -234 -281 -429
-286 -432 -13 -8 -142 60 -239 127 -270 185 -444 430 -507 713 -22 102 -19
273 7 466 27 196 31 325 11 363 -20 37 -69 57 -139 57 -58 0 -62 -2 -95 -40
-74 -86 -107 -259 -114 -590 -4 -192 -2 -251 11 -323 63 -334 319 -735 641
-1005 236 -198 582 -375 904 -461 l111 -29 10 41 c6 23 15 57 20 76 5 19 8 36
6 38 -2 2 -45 10 -97 19 -91 14 -357 72 -371 80 -3 2 106 185 244 407 299 482
279 450 284 444 8 -8 52 -248 68 -375 41 -318 -4 -744 -114 -1072 -101 -298
-240 -529 -445 -735 -318 -318 -742 -501 -1315 -566 -146 -17 -602 -17 -735
-1 -332 41 -615 113 -884 227 l-109 46 122 122 c138 139 218 241 281 360 52
98 75 173 75 241 0 55 -28 249 -60 415 -11 57 -18 106 -16 109 8 8 98 -72 188
-167 133 -139 209 -264 244 -401 21 -81 15 -202 -21 -445 -29 -197 -30 -243
-11 -290 16 -36 61 -70 109 -81 109 -24 183 64 228 273 29 139 39 496 15 597
-48 201 -217 453 -503 746 -102 105 -144 155 -150 180 -9 32 -13 36 -59 43
-27 4 -188 9 -359 10 -341 2 -392 -3 -583 -64 -75 -24 -92 -33 -88 -47 2 -9 7
-56 11 -104 4 -49 8 -88 10 -88 1 0 58 29 126 64 125 66 285 126 333 126 31 0
37 -11 105 -192 99 -267 159 -503 168 -659 5 -89 4 -101 -20 -153 -14 -31 -46
-82 -70 -114 -47 -60 -246 -258 -309 -306 l-37 -28 -73 53 c-322 232 -560 525
-614 755 -26 111 1 306 71 522 310 958 1394 2201 2300 2637 363 175 646 221
917 151z"/>
<path d="M7420 9159 c-95 -43 -160 -138 -160 -237 0 -234 326 -258 439 -33 53
106 23 224 -69 271 -53 27 -149 27 -210 -1z"/>
<path d="M6830 8851 c-112 -35 -180 -81 -290 -191 -109 -109 -187 -214 -285
-385 -31 -55 -61 -105 -66 -111 -12 -14 -100 -22 -403 -34 -132 -6 -241 -11
-242 -13 -1 -1 2 -39 8 -85 l11 -82 86 7 c98 9 752 11 912 3 l106 -5 202 223
203 223 56 -32 c176 -98 398 -299 521 -471 108 -152 150 -256 256 -643 80
-295 178 -405 359 -405 47 0 73 7 113 28 117 61 268 212 450 453 l96 126 101
-53 c83 -43 437 -204 498 -227 13 -4 27 12 62 72 25 43 46 83 46 89 0 6 -15
14 -32 17 -64 14 -368 116 -465 156 -138 57 -312 148 -418 217 l-90 59 -115
-111 c-130 -127 -320 -288 -333 -283 -5 1 -41 72 -81 157 -330 705 -724 1211
-1012 1300 -81 25 -179 25 -254 1z"/>
<path d="M7632 7157 c-47 -14 -126 -89 -151 -141 -41 -84 -26 -192 34 -245
112 -98 308 -44 381 105 50 103 16 227 -76 274 -44 22 -131 26 -188 7z"/>
<path d="M4496 3984 c-17 -18 -26 -37 -26 -59 0 -22 9 -41 26 -59 l27 -26
2972 0 2972 0 27 26 c17 18 26 37 26 59 0 22 -9 41 -26 59 l-27 26 -2972 0
-2972 0 -27 -26z"/>
<path d="M5737 2836 c-51 -19 -67 -34 -91 -86 -19 -43 -21 -66 -24 -415 -1
-203 -5 -380 -7 -391 -6 -29 -36 -35 -98 -18 -180 49 -422 59 -583 25 -186
-39 -372 -135 -507 -261 -102 -96 -167 -182 -223 -295 -67 -136 -87 -223 -88
-385 0 -158 13 -220 77 -350 33 -69 58 -102 132 -175 73 -74 106 -99 175 -132
115 -56 183 -73 322 -80 426 -21 784 212 953 620 30 72 49 83 66 40 6 -16 31
-70 56 -121 82 -171 219 -276 396 -304 181 -28 385 47 447 165 l24 46 38 -67
c203 -364 657 -533 1091 -407 273 79 496 265 626 522 128 255 116 583 -30 839
-92 161 -224 287 -389 372 -165 86 -274 112 -463 112 -299 0 -671 -136 -980
-358 -87 -62 -133 -123 -143 -187 -12 -82 18 -126 146 -219 45 -32 45 -33 43
-87 -7 -147 -7 -287 0 -310 8 -30 24 -26 -210 -45 -99 -8 -157 12 -232 82 -71
66 -121 161 -155 295 -52 207 -58 450 -25 1019 18 305 20 375 9 425 -15 70
-55 117 -115 134 -55 15 -192 13 -238 -3z m2008 -1151 c238 -62 411 -257 444
-501 26 -188 -44 -364 -194 -486 -275 -222 -655 -134 -810 187 -51 105 -75
210 -75 327 0 155 38 273 111 353 86 93 195 133 364 134 61 1 125 -5 160 -14z
m-2373 -114 c216 -39 224 -45 215 -155 -3 -47 -20 -117 -46 -196 -94 -280
-226 -456 -411 -544 -61 -29 -72 -31 -180 -31 -103 1 -121 3 -172 27 -149 69
-238 218 -238 398 0 102 14 169 53 249 64 132 208 236 368 266 92 18 268 12
411 -14z"/>
<path d="M168 2710 c-63 -11 -120 -45 -144 -83 -24 -40 -23 -118 5 -429 66
-719 100 -1203 110 -1561 7 -256 9 -280 28 -305 30 -41 61 -52 146 -52 103 0
161 15 191 51 27 32 46 106 46 179 0 40 3 50 16 50 10 0 70 -32 134 -70 139
-83 300 -160 465 -223 358 -135 682 -205 760 -164 71 37 147 148 161 234 12
76 -20 108 -126 128 -19 4 -115 26 -212 51 -330 82 -601 185 -732 278 -205
146 -175 263 143 549 309 280 411 433 411 621 0 84 -18 135 -66 183 -55 54
-125 72 -222 55 -215 -36 -440 -262 -644 -648 -64 -120 -89 -145 -115 -112 -6
7 -18 142 -27 308 -26 471 -46 741 -57 800 -16 78 -42 125 -82 143 -43 21
-128 28 -189 17z"/>
<path d="M9039 2710 c-60 -10 -100 -32 -133 -70 -24 -30 -26 -38 -26 -133 0
-56 11 -223 25 -372 67 -737 105 -1288 105 -1559 1 -181 9 -229 44 -265 26
-25 30 -26 146 -26 105 0 122 2 147 21 48 36 65 77 71 169 4 67 8 85 20 85 8
0 68 -32 132 -70 64 -39 164 -92 221 -119 395 -185 903 -321 1005 -268 43 22
112 101 137 155 13 30 21 68 21 105 1 47 3 56 16 52 83 -32 288 -30 400 3 233
69 429 202 624 424 42 47 82 88 90 91 25 10 37 -11 67 -114 73 -257 189 -401
359 -445 193 -49 491 76 579 245 18 34 17 101 -3 138 -36 71 -97 81 -220 39
-245 -85 -380 56 -415 435 -6 63 -11 153 -11 202 0 77 2 87 18 87 54 0 126 34
172 79 81 81 88 188 20 327 -58 119 -207 228 -370 271 -95 25 -261 22 -367 -6
-337 -88 -720 -377 -980 -739 -78 -107 -186 -321 -213 -422 -58 -215 -22 -411
96 -524 26 -25 43 -46 37 -46 -21 0 -372 90 -484 124 -63 19 -170 57 -238 85
-267 108 -395 220 -375 328 16 90 69 156 302 373 204 191 270 269 329 386 40
80 46 101 50 175 7 111 -7 162 -61 215 -53 54 -127 73 -220 57 -215 -37 -428
-248 -639 -635 -55 -101 -78 -134 -95 -136 -15 -2 -25 4 -32 20 -5 13 -21 228
-35 478 -14 250 -30 494 -35 541 -17 166 -47 218 -138 238 -58 12 -75 12 -143
1z m3051 -870 c60 -17 170 -140 156 -175 -2 -7 -29 -20 -60 -29 -61 -18 -94
-50 -142 -140 -236 -437 -539 -724 -769 -728 -175 -3 -212 150 -91 379 113
210 309 423 526 568 170 114 286 152 380 125z"/>
<path d="M13435 2240 c-92 -19 -185 -74 -209 -123 -14 -30 -13 -46 5 -183 42
-323 79 -762 99 -1194 7 -130 16 -235 23 -249 25 -50 61 -66 150 -66 99 1 179
32 219 86 33 44 34 47 58 229 78 583 168 915 275 1008 87 77 162 11 255 -222
65 -165 177 -607 250 -991 28 -147 39 -159 153 -163 123 -6 200 22 250 89 34
47 32 99 -17 344 -179 887 -366 1308 -626 1406 -77 30 -186 29 -264 -1 -113
-43 -214 -170 -293 -368 -19 -48 -37 -93 -40 -99 -9 -22 -30 -14 -42 15 -6 15
-15 70 -21 122 -23 213 -57 337 -98 359 -23 12 -68 13 -127 1z"/>
<path d="M2705 2075 c-241 -46 -495 -151 -715 -295 -164 -108 -209 -166 -210
-266 0 -67 27 -107 109 -161 36 -23 68 -48 73 -55 4 -7 5 -81 2 -163 -6 -121
-4 -166 10 -235 64 -314 297 -564 610 -654 180 -53 387 -54 568 -5 262 71 508
276 628 524 65 134 81 196 87 351 9 212 -34 370 -146 540 -128 194 -325 338
-552 405 -94 27 -354 36 -464 14z m287 -386 c29 -6 90 -29 136 -51 283 -134
411 -484 279 -758 -96 -198 -343 -332 -555 -301 -143 21 -284 112 -367 237
-85 127 -127 325 -106 489 29 218 120 327 314 380 63 17 226 19 299 4z"/>
</g>
</svg>
