<?xml version="1.0" standalone="no"?>
<svg xmlns="http://www.w3.org/2000/svg" viewBox="0 0 84 63" width="84" height="63"><g fill="#001AFF" color="#001AFF" transform="translate(24.483 0) scale(0.5833334) "><svg width="60.0" height="60.0" x="0.0" y="0.0" viewBox="0 0 60 60"><path d="M37.3,6C24.7,6,6,27.9,6,39.3C6,44.5,15.2,54,30.2,54C45.3,54,54,45.6,54,30.8C54,25.6,49.8,6,37.3,6z M36.1,12.5  c-1.7,0-1.9,5-1.9,6.4s-0.5,4.8,4.1,10.3s12,6.9,12,6.9l0.4-1.6c-1.2,0-4.6-0.9-4.6-0.9l5.1-8.2c0.5,2.4,0.8,4.4,0.8,5.6  C52,38.7,49.2,52,30.2,52c-5.2,0-9.5-1.2-12.9-2.8c3.4-3,4.4-5.2,4.6-6.6c0.1-1-0.8-5.4-0.8-5.4s4.3,3.1,4.3,6.6  c0,1.4-0.6,4.9-0.6,4.9s-0.3,1.9,1.6,1.9s2.3-4.4,2.1-7.7c-0.3-3.9-6.3-9.2-6.3-9.2L22,32.9c0,0-2.8-0.2-5.4-0.2s-5,1-5,1l0.2,2.1  c0,0,3.1-1.9,4.7-1.9c0,0,2.3,5.3,2.4,8.6c0.1,1.6-2.5,3.9-4.2,5.3C10.3,44.9,8,41.3,8,39.3c0-4.9,4.1-12.6,10.4-19.6  C24.9,12.5,32.1,8,37.3,8c6.6,0,10.6,6.6,12.7,12.9l-5.4,8.3c0,0-7-2.8-7.3-9.6c-0.1-1.2,0.5-4.4,0.5-5.3S37.9,12.5,36.1,12.5z   M36.5,37.1c0,0,2.5-1.9,4.3-3.9c4.2,3,9,4,9.8,4.3l-1,1.7c0,0-5.4-2.3-5.9-2.8c0,0-4,5.9-6.2,5.9c-4.2,0-3.1-5.7-5.7-9.6  c-2.7-4-5.9-5.3-5.9-5.3l-3.9,4.3c0,0-1.9-0.2-4.9-0.2c-3,0-5.7,0.2-5.7,0.2l-0.2-1.7c0,0,4.5-0.1,6.2-0.3c0.8-1.3,3.4-6.9,7.5-6.9  C30.5,22.9,36.5,37.1,36.5,37.1z M27.7,22c0.2-1.2,1.3-2.2,2.6-2.2s2.1,1,1.9,2.2c-0.2,1.2-1.3,2.2-2.6,2.2S27.5,23.2,27.7,22z   M34.1,41.3c-0.2,1.2-1.3,2.2-2.6,2.2s-2.1-1-1.9-2.2c0.2-1.2,1.3-2.2,2.6-2.2C33.4,39.1,34.2,40.1,34.1,41.3z"></path></svg></g><line x1="25.532421875" y1="41" x2="58.432421875" y2="41" stroke="#515050" stroke-linecap="round"></line><path fill="#515050" fill-rule="nonzero" d="M0.79 13.57L0.79 13.57Q0.79 12.55 0.73 11.36Q0.67 10.16 0.58 8.94Q0.49 7.71 0.39 6.54Q0.29 5.37 0.21 4.39Q0.12 3.42 0.06 2.72Q0 2.02 0 1.73L0 1.73Q0 1.27 0.35 1.02Q0.70 0.77 1.37 0.77L1.37 0.77Q1.66 0.77 1.87 0.83Q2.07 0.89 2.20 1.03Q2.33 1.17 2.41 1.40Q2.48 1.63 2.52 1.97L2.52 1.97Q2.57 2.44 2.60 2.97Q2.64 3.50 2.68 4.18Q2.72 4.86 2.77 5.72Q2.81 6.57 2.88 7.69L2.88 7.69Q2.88 7.85 2.94 7.92Q3 7.99 3.07 7.99L3.07 7.99Q3.20 7.99 3.30 7.78L3.30 7.78Q4.30 5.75 5.39 4.68Q6.48 3.61 7.51 3.61L7.51 3.61Q8.12 3.61 8.47 3.97Q8.82 4.34 8.82 4.95L8.82 4.95Q8.82 5.60 8.54 6.16Q8.25 6.71 7.82 7.21Q7.39 7.70 6.90 8.13Q6.40 8.57 5.97 8.98Q5.54 9.39 5.26 9.78Q4.97 10.17 4.97 10.57L4.97 10.57Q4.97 10.93 5.40 11.31Q5.82 11.70 6.63 12.06Q7.44 12.43 8.61 12.78Q9.79 13.13 11.27 13.44L11.27 13.44Q11.51 13.50 11.61 13.63Q11.71 13.76 11.71 13.97L11.71 13.97Q11.71 14.23 11.59 14.50Q11.47 14.78 11.30 15.01Q11.12 15.23 10.90 15.38Q10.69 15.53 10.49 15.53L10.49 15.53Q10.09 15.53 9.54 15.42Q8.99 15.32 8.35 15.13Q7.71 14.95 7.03 14.71Q6.35 14.47 5.71 14.20Q5.07 13.92 4.51 13.62Q3.94 13.32 3.53 13.03L3.53 13.03Q3.40 12.96 3.32 12.91Q3.25 12.87 3.19 12.87L3.19 12.87Q3.12 12.87 3.11 12.92Q3.09 12.97 3.09 13.14L3.09 13.14Q3.09 13.55 3.03 13.80Q2.96 14.06 2.81 14.21Q2.66 14.36 2.39 14.41Q2.12 14.47 1.72 14.47L1.72 14.47Q1.20 14.47 0.99 14.27Q0.79 14.07 0.79 13.57ZM10.93 9.91L10.93 9.91Q10.93 9.71 10.98 9.47Q11.03 9.22 11.03 8.93L11.03 8.93Q11.03 8.73 10.86 8.63Q10.69 8.52 10.48 8.39Q10.27 8.26 10.10 8.06Q9.93 7.86 9.93 7.49L9.93 7.49Q9.93 7.22 10.07 6.95Q10.22 6.68 10.50 6.46L10.50 6.46Q11.19 5.94 11.94 5.53Q12.68 5.12 13.42 4.84Q14.17 4.56 14.89 4.41Q15.62 4.25 16.29 4.25L16.29 4.25Q17.41 4.25 18.40 4.67Q19.39 5.09 20.13 5.81Q20.86 6.53 21.29 7.49Q21.71 8.46 21.71 9.56L21.71 9.56Q21.71 10.64 21.26 11.61Q20.81 12.57 20.05 13.30Q19.29 14.03 18.26 14.46Q17.24 14.88 16.10 14.88L16.10 14.88Q14.99 14.88 14.04 14.51Q13.09 14.13 12.40 13.47Q11.71 12.81 11.32 11.90Q10.93 10.99 10.93 9.91ZM16.36 12.77L16.36 12.77Q16.85 12.77 17.38 12.57Q17.91 12.38 18.35 11.99Q18.79 11.61 19.07 11.06Q19.36 10.51 19.36 9.82L19.36 9.82Q19.36 9.12 19.10 8.51Q18.84 7.90 18.39 7.45Q17.94 7.00 17.33 6.74Q16.71 6.48 16.00 6.48L16.00 6.48Q14.70 6.48 14.00 7.15Q13.31 7.83 13.31 9.22L13.31 9.22Q13.31 9.98 13.54 10.63Q13.77 11.29 14.18 11.76Q14.59 12.23 15.15 12.50Q15.70 12.77 16.36 12.77ZM31.08 5.24L31.08 5.24Q31.13 5.26 31.22 5.26L31.22 5.26Q31.48 5.26 31.48 4.92L31.48 4.92L31.48 1.28Q31.48 0.59 31.79 0.29Q32.10 0 32.82 0L32.82 0Q33.56 0 33.87 0.30Q34.17 0.61 34.17 1.35L34.17 1.35Q34.17 1.63 34.14 2.17Q34.10 2.72 34.06 3.41Q34.02 4.10 33.98 4.89Q33.95 5.68 33.95 6.46L33.95 6.46Q33.95 7.65 34.11 8.52Q34.28 9.39 34.58 9.96Q34.89 10.52 35.31 10.80Q35.73 11.07 36.26 11.07L36.26 11.07Q36.55 11.07 36.79 11.00Q37.03 10.92 37.36 10.92L37.36 10.92Q37.59 10.92 37.75 11.16Q37.91 11.40 37.91 11.74L37.91 11.74Q37.91 12.05 37.73 12.32Q37.55 12.59 37.24 12.79Q36.93 12.98 36.52 13.10Q36.11 13.21 35.66 13.21L35.66 13.21Q34.70 13.21 33.90 12.62Q33.11 12.02 32.71 10.80L32.71 10.80Q32.67 10.62 32.59 10.62L32.59 10.62Q32.50 10.62 32.44 10.80L32.44 10.80Q32.12 11.66 31.61 12.35Q31.10 13.03 30.43 13.52Q29.75 14.00 28.95 14.26Q28.15 14.52 27.26 14.52L27.26 14.52Q26.32 14.52 25.54 14.21Q24.76 13.90 24.20 13.34Q23.64 12.79 23.32 12.03Q23.00 11.27 23.00 10.39L23.00 10.39Q23.00 9.27 23.47 8.27Q23.94 7.28 24.74 6.53Q25.55 5.79 26.61 5.36Q27.68 4.92 28.89 4.92L28.89 4.92Q29.38 4.92 29.93 5.00Q30.48 5.07 31.08 5.24ZM27.71 12.41L27.71 12.41Q28.38 12.41 28.90 12.12Q29.43 11.82 29.83 11.37Q30.23 10.92 30.52 10.38Q30.80 9.83 30.97 9.32Q31.15 8.80 31.23 8.39Q31.31 7.98 31.31 7.80L31.31 7.80Q31.31 7.68 31.24 7.58Q31.17 7.48 31.03 7.42L31.03 7.42Q30.71 7.34 30.38 7.27Q30.04 7.21 29.71 7.16Q29.38 7.11 29.08 7.09Q28.78 7.07 28.54 7.07L28.54 7.07Q27.83 7.07 27.26 7.28Q26.68 7.49 26.28 7.88Q25.88 8.26 25.65 8.79Q25.43 9.33 25.43 9.96L25.43 9.96Q25.43 10.52 25.60 10.97Q25.77 11.43 26.07 11.74Q26.37 12.06 26.79 12.23Q27.21 12.41 27.71 12.41ZM37.45 9.91L37.45 9.91Q37.45 9.71 37.50 9.47Q37.55 9.22 37.55 8.93L37.55 8.93Q37.55 8.73 37.38 8.63Q37.21 8.52 37.00 8.39Q36.79 8.26 36.62 8.06Q36.45 7.86 36.45 7.49L36.45 7.49Q36.45 7.22 36.59 6.95Q36.74 6.68 37.02 6.46L37.02 6.46Q37.71 5.94 38.46 5.53Q39.20 5.12 39.94 4.84Q40.69 4.56 41.41 4.41Q42.14 4.25 42.81 4.25L42.81 4.25Q43.93 4.25 44.92 4.67Q45.91 5.09 46.65 5.81Q47.38 6.53 47.81 7.49Q48.23 8.46 48.23 9.56L48.23 9.56Q48.23 10.64 47.78 11.61Q47.33 12.57 46.57 13.30Q45.81 14.03 44.78 14.46Q43.76 14.88 42.62 14.88L42.62 14.88Q41.51 14.88 40.56 14.51Q39.61 14.13 38.92 13.47Q38.23 12.81 37.84 11.90Q37.45 10.99 37.45 9.91ZM42.88 12.77L42.88 12.77Q43.37 12.77 43.90 12.57Q44.43 12.38 44.87 11.99Q45.30 11.61 45.59 11.06Q45.88 10.51 45.88 9.82L45.88 9.82Q45.88 9.12 45.62 8.51Q45.36 7.90 44.91 7.45Q44.46 7.00 43.85 6.74Q43.23 6.48 42.52 6.48L42.52 6.48Q41.21 6.48 40.52 7.15Q39.83 7.83 39.83 9.22L39.83 9.22Q39.83 9.98 40.06 10.63Q40.29 11.29 40.70 11.76Q41.11 12.23 41.67 12.50Q42.22 12.77 42.88 12.77ZM50.46 13.57L50.46 13.57Q50.46 12.55 50.40 11.36Q50.34 10.16 50.26 8.94Q50.17 7.71 50.07 6.54Q49.97 5.37 49.88 4.39Q49.79 3.42 49.73 2.72Q49.68 2.02 49.68 1.73L49.68 1.73Q49.68 1.27 50.03 1.02Q50.38 0.77 51.05 0.77L51.05 0.77Q51.34 0.77 51.54 0.83Q51.75 0.89 51.88 1.03Q52.01 1.17 52.08 1.40Q52.16 1.63 52.20 1.97L52.20 1.97Q52.24 2.44 52.28 2.97Q52.31 3.50 52.35 4.18Q52.39 4.86 52.44 5.72Q52.49 6.57 52.56 7.69L52.56 7.69Q52.56 7.85 52.62 7.92Q52.68 7.99 52.75 7.99L52.75 7.99Q52.88 7.99 52.98 7.78L52.98 7.78Q53.98 5.75 55.07 4.68Q56.16 3.61 57.19 3.61L57.19 3.61Q57.80 3.61 58.15 3.97Q58.50 4.34 58.50 4.95L58.50 4.95Q58.50 5.60 58.21 6.16Q57.93 6.71 57.50 7.21Q57.07 7.70 56.57 8.13Q56.07 8.57 55.65 8.98Q55.22 9.39 54.93 9.78Q54.64 10.17 54.64 10.57L54.64 10.57Q54.64 10.93 55.07 11.31Q55.50 11.70 56.31 12.06Q57.12 12.43 58.29 12.78Q59.46 13.13 60.95 13.44L60.95 13.44Q61.18 13.50 61.28 13.63Q61.38 13.76 61.38 13.97L61.38 13.97Q61.38 14.23 61.27 14.50Q61.15 14.78 60.97 15.01Q60.80 15.23 60.58 15.38Q60.36 15.53 60.16 15.53L60.16 15.53Q59.77 15.53 59.21 15.42Q58.66 15.32 58.03 15.13Q57.39 14.95 56.71 14.71Q56.03 14.47 55.39 14.20Q54.75 13.92 54.18 13.62Q53.61 13.32 53.20 13.03L53.20 13.03Q53.07 12.96 53.00 12.91Q52.92 12.87 52.86 12.87L52.86 12.87Q52.79 12.87 52.78 12.92Q52.77 12.97 52.77 13.14L52.77 13.14Q52.77 13.55 52.71 13.80Q52.64 14.06 52.49 14.21Q52.34 14.36 52.07 14.41Q51.80 14.47 51.40 14.47L51.40 14.47Q50.87 14.47 50.67 14.27Q50.46 14.07 50.46 13.57ZM67.82 3.56L67.82 3.56Q68.46 3.56 69.06 3.76Q69.66 3.96 70.11 4.31Q70.57 4.66 70.85 5.16Q71.12 5.65 71.12 6.25L71.12 6.25Q71.12 6.49 71.01 6.72Q70.90 6.95 70.71 7.12Q70.52 7.29 70.28 7.39Q70.04 7.49 69.79 7.49L69.79 7.49Q69.76 7.49 69.74 7.49Q69.73 7.50 69.70 7.50L69.70 7.50Q69.68 7.51 69.66 7.51L69.66 7.51L69.70 8.45Q69.75 10.13 70.18 10.90Q70.61 11.67 71.30 11.67L71.30 11.67Q71.54 11.67 71.74 11.63Q71.93 11.58 72.10 11.51Q72.27 11.45 72.42 11.40Q72.57 11.36 72.73 11.36L72.73 11.36Q73.00 11.36 73.20 11.59Q73.41 11.82 73.41 12.15L73.41 12.15Q73.41 12.48 73.15 12.81Q72.90 13.14 72.49 13.40Q72.08 13.66 71.57 13.83Q71.05 13.99 70.52 13.99L70.52 13.99Q69.61 13.99 68.92 13.24Q68.23 12.48 67.93 11.02L67.93 11.02Q67.86 10.78 67.75 10.78L67.75 10.78Q67.61 10.78 67.50 10.92L67.50 10.92Q66.34 12.39 65.03 13.12Q63.71 13.85 62.44 13.85L62.44 13.85Q61.84 13.85 61.36 13.68Q60.88 13.50 60.54 13.18Q60.21 12.86 60.03 12.39Q59.85 11.93 59.85 11.36L59.85 11.36Q59.85 10.55 60.21 9.66Q60.56 8.77 61.17 7.90Q61.78 7.03 62.58 6.25Q63.39 5.46 64.27 4.86Q65.16 4.27 66.07 3.91Q66.98 3.56 67.82 3.56ZM67.43 7.62L67.43 7.62Q67.64 7.22 67.82 7.04Q67.99 6.86 68.32 6.80L68.32 6.80Q68.58 6.76 68.58 6.63L68.58 6.63Q68.58 6.54 68.51 6.43L68.51 6.43Q68.29 6.13 68.04 5.90Q67.79 5.67 67.38 5.67L67.38 5.67Q66.94 5.67 66.39 5.93Q65.84 6.19 65.27 6.62Q64.70 7.04 64.15 7.59Q63.61 8.13 63.19 8.71Q62.77 9.28 62.51 9.84Q62.25 10.41 62.25 10.85L62.25 10.85Q62.25 11.25 62.47 11.47Q62.68 11.70 63.06 11.70L63.06 11.70Q64.02 11.70 65.16 10.68Q66.29 9.66 67.43 7.62ZM73.98 4.35L73.98 4.35Q73.98 4.17 74.13 4.00Q74.29 3.83 74.53 3.70Q74.78 3.56 75.09 3.47Q75.40 3.39 75.71 3.39L75.71 3.39Q75.89 3.39 76.01 3.48Q76.14 3.57 76.23 3.84Q76.32 4.10 76.40 4.58Q76.48 5.05 76.55 5.81L76.55 5.81Q76.59 6.05 76.63 6.17Q76.68 6.29 76.75 6.29L76.75 6.29Q76.85 6.29 76.96 5.93L76.96 5.93Q77.81 3.46 79.43 3.46L79.43 3.46Q80.18 3.46 80.79 3.93Q81.41 4.39 81.94 5.46Q82.48 6.52 82.96 8.24Q83.44 9.97 83.92 12.50L83.92 12.50Q83.94 12.63 83.95 12.74Q83.96 12.84 83.96 12.94L83.96 12.94Q83.96 13.21 83.84 13.40Q83.72 13.59 83.52 13.72Q83.32 13.84 83.07 13.90Q82.83 13.97 82.58 13.97L82.58 13.97Q82.09 13.97 81.87 13.86Q81.66 13.76 81.60 13.46L81.60 13.46Q81.26 11.68 80.94 10.30Q80.61 8.92 80.30 7.97Q79.99 7.03 79.69 6.54Q79.38 6.05 79.08 6.05L79.08 6.05Q78.77 6.05 78.51 6.43Q78.25 6.81 78 7.62Q77.75 8.43 77.53 9.67Q77.30 10.91 77.09 12.63L77.09 12.63Q77.03 13.10 76.62 13.38Q76.21 13.66 75.57 13.66L75.57 13.66Q75.15 13.66 74.93 13.49Q74.71 13.31 74.68 13.01L74.68 13.01Q74.58 10.57 74.46 8.99Q74.33 7.42 74.23 6.46Q74.12 5.51 74.05 5.04Q73.98 4.57 73.98 4.35Z" transform="translate(0, 47)"></path></svg>